<svg width="32" height="32" viewBox="0 0 32 32" fill="none" xmlns="http://www.w3.org/2000/svg">
<path d="M16 32C7.1648 32 0 24.8352 0 16C0 7.1648 7.1648 0 16 0C24.8352 0 32 7.1648 32 16C32 24.8352 24.8352 32 16 32Z" fill="#48C857"/>
<path fill-rule="evenodd" clip-rule="evenodd" d="M22.2041 9.76205C20.5581 8.11505 18.3691 7.20705 16.0371 7.20605C11.2301 7.20605 7.31914 11.1151 7.31814 15.9201C7.31614 17.4491 7.71714 18.9521 8.48114 20.2771L7.24414 24.7931L11.8661 23.5811C13.1451 24.2771 14.5771 24.6421 16.0331 24.6421H16.0371C20.8421 24.6421 24.7531 20.7321 24.7551 15.9271C24.7561 13.5991 23.8501 11.4101 22.2041 9.76205Z" stroke="white" stroke-linecap="round" stroke-linejoin="round"/>
<path d="M17.0957 17.56L17.5017 17.157C17.8747 16.787 18.4647 16.74 18.8947 17.042C19.3107 17.334 19.6867 17.596 20.0367 17.84C20.5927 18.226 20.6597 19.018 20.1807 19.496L19.8217 19.855" stroke="white" stroke-linecap="round" stroke-linejoin="round"/>
<path d="M12.1445 12.179L12.5035 11.82C12.9815 11.342 13.7735 11.409 14.1595 11.964C14.4025 12.314 14.6645 12.69 14.9575 13.106C15.2595 13.536 15.2135 14.126 14.8425 14.499L14.4395 14.905" stroke="white" stroke-linecap="round" stroke-linejoin="round"/>
<path d="M19.8217 19.855C18.3407 21.329 15.8517 20.077 13.8867 18.111" stroke="white" stroke-linecap="round" stroke-linejoin="round"/>
<path d="M13.8881 18.1141C11.9231 16.1481 10.6711 13.6601 12.1451 12.1791" stroke="white" stroke-linecap="round" stroke-linejoin="round"/>
<path d="M14.4395 14.905C14.7585 15.408 15.1675 15.906 15.6295 16.368L15.6315 16.37C16.0935 16.832 16.5915 17.241 17.0945 17.56" stroke="white" stroke-linecap="round" stroke-linejoin="round"/>
</svg>
